<svg width="250" height="250" viewBox="0 0 250 250" fill="none" xmlns="http://www.w3.org/2000/svg">
<circle cx="125" cy="125" r="125" fill="#1C1C1F"/>
<path d="M141.227 191C136.65 191 133.426 189.201 131.553 185.604C129.681 182.028 128.745 177.848 128.745 173.065C128.745 168.803 129.348 164.592 130.555 160.433C131.74 156.275 133.165 153.104 134.83 150.92C132.021 154.247 128.537 158.042 124.376 162.305C120.215 166.567 115.638 170.674 110.645 174.625C105.652 178.576 100.504 181.851 95.1986 184.45C89.8936 187.049 84.6407 188.349 79.4397 188.349C77.8794 188.349 76.3504 188.214 74.8525 187.943C73.3338 187.694 71.8463 187.257 70.3901 186.633C66.5414 185.074 63.6809 182.287 61.8085 178.274C59.9362 174.282 59 169.479 59 163.864C59 157.938 60.009 151.565 62.027 144.745C64.0657 137.945 67.0615 131.01 71.0142 123.94C72.8865 120.51 74.9981 117.099 77.3489 113.71C79.679 110.341 82.1962 107.15 84.9007 104.135C81.6761 102.679 78.7116 101.036 76.0071 99.2064C73.3026 97.3974 71.0142 95.4012 69.1418 93.2179C67.8936 91.7623 66.9574 90.0468 66.3333 88.0714C65.7092 86.096 65.3972 84.1726 65.3972 82.3012C65.3972 78.9742 66.1773 76.7909 67.7376 75.7512C68.2577 74.9194 68.8818 74.5036 69.6099 74.5036C70.5461 74.5036 71.0142 75.0754 71.0142 76.219C71.0142 76.9468 70.8061 77.7266 70.3901 78.5583C69.87 79.9099 69.6099 81.1575 69.6099 82.3012C69.6099 83.9647 70.026 85.493 70.8582 86.8862C71.6903 88.3002 72.6785 89.631 73.8227 90.8786C77.1513 94.8294 81.7281 98.1044 87.5532 100.704C94.2104 93.4258 101.523 86.6887 109.491 80.4921C117.438 74.3164 125.988 69.3571 135.142 65.6143C144.296 61.8714 153.917 60 164.007 60C172.433 60 179.038 61.8402 183.823 65.5207C188.608 69.222 191 73.9837 191 79.806C191 82.6131 190.168 85.649 188.504 88.9136C186.839 92.199 184.135 95.37 180.39 98.4267C176.645 101.504 171.684 104.155 165.505 106.38C159.305 108.626 151.629 110.165 142.475 110.996C139.251 111.308 136.369 111.537 133.831 111.683C131.272 111.849 128.537 111.932 125.624 111.932C120.215 111.932 114.993 111.568 109.959 110.84C104.904 110.113 99.8794 108.969 94.8865 107.41C93.0142 110.009 90.6426 113.544 87.7716 118.014C84.9215 122.485 82.0922 127.267 79.2837 132.362C76.4752 137.456 74.1348 142.291 72.2624 146.865C70.5981 151.232 69.3499 155.204 68.5177 158.78C67.6856 162.378 67.2695 165.58 67.2695 168.387C67.2695 173.481 68.4657 177.297 70.8582 179.834C73.2506 182.391 76.4752 183.67 80.5319 183.67C84.4846 183.67 88.9783 182.527 94.0128 180.239C99.0681 177.952 104.352 174.521 109.865 169.946C115.378 165.372 120.766 160.225 126.03 154.507C131.272 148.789 136.078 142.967 140.447 137.04C144.816 131.114 148.352 125.656 151.057 120.665C152.825 117.338 154.541 114.968 156.206 113.554C157.87 112.161 159.274 111.464 160.418 111.464C161.563 111.464 162.447 111.901 163.071 112.774C163.695 113.668 164.007 114.843 164.007 116.299C164.007 119.21 162.707 122.121 160.106 125.032C157.194 128.255 154.333 132.206 151.525 136.885C148.716 141.563 146.22 146.502 144.035 151.7C141.851 156.898 140.291 161.993 139.355 166.983C139.043 168.647 138.835 170.206 138.73 171.662C138.626 173.117 138.574 174.417 138.574 175.561C138.574 179.408 139.178 182.163 140.384 183.826C141.57 185.49 143.151 186.321 145.128 186.321C147.52 186.321 150.277 185.23 153.397 183.046C156.518 180.863 159.534 177.952 162.447 174.313C164.943 170.986 167.367 167.451 169.718 163.708C172.048 159.965 174.201 156.067 176.177 152.012C176.489 151.284 176.937 150.733 177.519 150.359C178.081 150.005 178.466 149.829 178.674 149.829C179.194 149.829 179.454 150.14 179.454 150.764C179.454 151.18 179.298 151.804 178.986 152.636C178.05 154.715 176.801 157.21 175.241 160.121C173.681 163.033 171.965 166.016 170.092 169.073C168.22 172.151 166.296 174.989 164.319 177.588C161.615 181.123 158.213 184.242 154.115 186.945C149.996 189.648 145.7 191 141.227 191ZM124.22 108.189C129.629 108.189 135.662 107.877 142.319 107.254C150.953 106.526 158.442 104.81 164.787 102.107C171.132 99.404 176.021 95.973 179.454 91.8143C182.887 87.6556 184.603 83.029 184.603 77.9345C184.603 73.3599 182.71 69.877 178.923 67.4857C175.116 65.0944 170.3 63.8988 164.475 63.8988C154.801 63.8988 145.991 65.791 138.044 69.5755C130.076 73.3807 122.795 78.3504 116.2 84.4845C109.584 90.6187 103.312 97.2206 97.383 104.29C105.288 106.89 114.234 108.189 124.22 108.189Z" fill="white"/>
</svg>
